<?xml version="1.0" encoding="UTF-8" standalone="no"?><!-- Generator: Gravit.io --><svg xmlns:xlink="http://www.w3.org/1999/xlink" xmlns="http://www.w3.org/2000/svg" style="isolation:isolate" viewBox="0 0 512 512" width="512pt" height="512pt"><defs><clipPath id="_clipPath_NR5CjatQdgDBzp1HxJS4GkYa4Wth2H7q"><rect width="512" height="512"/></clipPath></defs><g clip-path="url(#_clipPath_NR5CjatQdgDBzp1HxJS4GkYa4Wth2H7q)"><g filter="url(#8iSo5sThihWZILFtOYKgM8Ze413fkZwz)"><path d="M 132.601 11.07 L 426.999 11.07 C 451.019 11.07 470.52 30.571 470.52 54.591 L 470.52 463.689 C 470.52 487.709 451.019 507.21 426.999 507.21 L 132.601 507.21 C 108.581 507.21 89.08 487.709 89.08 463.689 L 89.08 54.591 C 89.08 30.571 108.581 11.07 132.601 11.07 Z" style="stroke:none;fill:#5885AF;stroke-miterlimit:10;"/><path d="M 107.999 11.07 L 151.45 11.07 L 151.45 507.21 L 107.999 507.21 C 83.98 507.21 64.48 487.709 64.48 463.689 L 64.48 54.591 C 64.48 30.571 83.98 11.07 107.999 11.07 Z" style="stroke:none;fill:#274472;stroke-miterlimit:10;"/><defs><filter id="iKJzSoSArwVrdUjnd6WhgXk2lEiCAWM6" x="-200%" y="-200%" width="400%" height="400%" filterUnits="objectBoundingBox" color-interpolation-filters="sRGB"><feOffset xmlns="http://www.w3.org/2000/svg" in="SourceGraphic" dx="0" dy="0"/><feGaussianBlur xmlns="http://www.w3.org/2000/svg" stdDeviation="2.146804531419514" result="pf_100_offsetBlur"/><feComposite xmlns="http://www.w3.org/2000/svg" in="SourceGraphic" in2="pf_100_offsetBlur" result="pf_100_inverse" operator="out"/><feFlood xmlns="http://www.w3.org/2000/svg" flood-color="#000000" flood-opacity="0.5" result="pf_100_color"/><feComposite xmlns="http://www.w3.org/2000/svg" in="pf_100_color" in2="pf_100_inverse" operator="in" result="pf_100_shadow"/><feComposite xmlns="http://www.w3.org/2000/svg" in="pf_100_shadow" in2="SourceGraphic" operator="over"/></filter></defs><g filter="url(#iKJzSoSArwVrdUjnd6WhgXk2lEiCAWM6)"><path d=" M 382.276 406.024 C 382.147 406.196 382.019 406.369 381.893 406.548 L 365.107 430.294 L 348.32 454.041 C 343.592 460.729 346.404 466.159 354.594 466.159 L 390.459 466.159 L 426.325 466.159 C 434.515 466.159 437.327 460.729 432.599 454.041 L 415.812 430.294 L 399.026 406.548 C 398.9 406.369 398.772 406.196 398.643 406.024 C 398.772 405.852 398.9 405.678 399.026 405.5 L 415.812 381.754 L 432.599 358.007 C 437.327 351.319 434.515 345.889 426.325 345.889 L 390.459 345.889 L 354.594 345.889 C 346.404 345.889 343.592 351.319 348.32 358.007 L 365.107 381.754 L 381.893 405.5 C 382.019 405.678 382.147 405.852 382.276 406.024 Z " fill="rgb(59,103,145)"/></g><g><defs><filter id="DuCpxeFb4lgq8qryqCoAB8PrhjwpmjHC" x="-200%" y="-200%" width="400%" height="400%" filterUnits="objectBoundingBox" color-interpolation-filters="sRGB"><feGaussianBlur xmlns="http://www.w3.org/2000/svg" in="SourceGraphic" stdDeviation="2.146804531419514"/><feOffset xmlns="http://www.w3.org/2000/svg" dx="0" dy="0" result="pf_100_offsetBlur"/><feFlood xmlns="http://www.w3.org/2000/svg" flood-color="#000000" flood-opacity="0.5"/><feComposite xmlns="http://www.w3.org/2000/svg" in2="pf_100_offsetBlur" operator="in" result="pf_100_dropShadow"/><feBlend xmlns="http://www.w3.org/2000/svg" in="SourceGraphic" in2="pf_100_dropShadow" mode="normal"/></filter></defs><g filter="url(#DuCpxeFb4lgq8qryqCoAB8PrhjwpmjHC)"><path d=" M 432.072 208.364 L 477.775 208.364 L 477.775 309.914 L 432.072 309.914 C 403.651 309.914 380.576 287.163 380.576 259.139 L 380.576 259.139 C 380.576 231.115 403.651 208.364 432.072 208.364 Z " fill="rgb(39,68,114)"/></g><circle vector-effect="non-scaling-stroke" cx="432.3047326293232" cy="259.1391006803282" r="13.056512444929126" fill="rgb(236,223,203)"/></g></g><defs><filter id="8iSo5sThihWZILFtOYKgM8Ze413fkZwz" x="-200%" y="-200%" width="400%" height="400%" filterUnits="objectBoundingBox" color-interpolation-filters="sRGB"><feOffset xmlns="http://www.w3.org/2000/svg" in="SourceGraphic" dx="0" dy="0"/><feGaussianBlur xmlns="http://www.w3.org/2000/svg" stdDeviation="2.146804531419514" result="pf_100_offsetBlur"/><feComposite xmlns="http://www.w3.org/2000/svg" in="SourceGraphic" in2="pf_100_offsetBlur" result="pf_100_inverse" operator="out"/><feFlood xmlns="http://www.w3.org/2000/svg" flood-color="#000000" flood-opacity="0.5" result="pf_100_color"/><feComposite xmlns="http://www.w3.org/2000/svg" in="pf_100_color" in2="pf_100_inverse" operator="in" result="pf_100_shadow"/><feComposite xmlns="http://www.w3.org/2000/svg" in="pf_100_shadow" in2="SourceGraphic" operator="over"/></filter></defs><defs><filter id="sW9PUpPPZFnVQo7xCriR2hGDYsWGhwYc" x="-200%" y="-200%" width="400%" height="400%" filterUnits="objectBoundingBox" color-interpolation-filters="sRGB"><feOffset xmlns="http://www.w3.org/2000/svg" in="SourceGraphic" dx="0" dy="0"/><feGaussianBlur xmlns="http://www.w3.org/2000/svg" stdDeviation="2.146804531419514" result="pf_100_offsetBlur"/><feComposite xmlns="http://www.w3.org/2000/svg" in="SourceGraphic" in2="pf_100_offsetBlur" result="pf_100_inverse" operator="out"/><feFlood xmlns="http://www.w3.org/2000/svg" flood-color="#000000" flood-opacity="0.3" result="pf_100_color"/><feComposite xmlns="http://www.w3.org/2000/svg" in="pf_100_color" in2="pf_100_inverse" operator="in" result="pf_100_shadow"/><feComposite xmlns="http://www.w3.org/2000/svg" in="pf_100_shadow" in2="SourceGraphic" operator="over"/></filter></defs><g filter="url(#sW9PUpPPZFnVQo7xCriR2hGDYsWGhwYc)"><path d=" M 218.21 91.981 L 214.739 91.981 L 201.988 66.586 L 201.528 75.122 L 201.528 75.122 Q 201.315 78.84 201.156 82.506 L 201.156 82.506 L 201.156 82.506 Q 200.996 86.172 200.571 89.484 L 200.571 89.484 L 200.571 89.484 Q 200.146 92.795 199.243 95.629 L 199.243 95.629 L 199.243 95.629 Q 198.34 98.462 196.622 100.534 L 196.622 100.534 L 196.622 100.534 Q 194.905 102.606 192.16 103.775 L 192.16 103.775 L 192.16 103.775 Q 189.415 104.944 185.306 104.944 L 185.306 104.944 L 185.306 104.944 Q 183.5 104.944 181.835 104.643 L 181.835 104.643 L 181.835 104.643 Q 180.171 104.341 178.896 103.81 L 178.896 103.81 L 178.896 103.81 Q 177.621 103.279 176.859 102.553 L 176.859 102.553 L 176.859 102.553 Q 176.098 101.827 176.098 100.977 L 176.098 100.977 L 176.098 100.977 Q 176.098 100.339 176.275 99.684 L 176.275 99.684 L 176.275 99.684 Q 176.452 99.029 176.806 98.48 L 176.806 98.48 L 176.806 98.48 Q 177.16 97.931 177.674 97.594 L 177.674 97.594 L 177.674 97.594 Q 178.187 97.258 178.825 97.258 L 178.825 97.258 L 178.825 97.258 Q 179.214 97.258 179.515 97.647 L 179.515 97.647 L 179.515 97.647 Q 179.816 98.037 180.135 98.621 L 180.135 98.621 L 180.135 98.621 Q 180.454 99.206 180.861 99.879 L 180.861 99.879 L 180.861 99.879 Q 181.269 100.552 181.924 101.136 L 181.924 101.136 L 181.924 101.136 Q 182.579 101.721 183.5 102.11 L 183.5 102.11 L 183.5 102.11 Q 184.421 102.5 185.802 102.5 L 185.802 102.5 L 185.802 102.5 Q 188.529 102.5 190.389 101.561 L 190.389 101.561 L 190.389 101.561 Q 192.248 100.623 193.452 98.852 L 193.452 98.852 L 193.452 98.852 Q 194.657 97.081 195.294 94.566 L 195.294 94.566 L 195.294 94.566 Q 195.932 92.051 196.25 88.864 L 196.25 88.864 L 196.25 88.864 Q 196.392 87.093 196.534 85.446 L 196.534 85.446 L 196.534 85.446 Q 196.675 83.799 196.817 82.17 L 196.817 82.17 L 196.817 82.17 Q 196.959 80.541 197.083 78.858 L 197.083 78.858 L 197.083 78.858 Q 197.207 77.176 197.348 75.299 L 197.348 75.299 L 197.348 75.299 Q 197.526 72.571 197.667 70.11 L 197.667 70.11 L 197.667 70.11 Q 197.809 67.648 197.897 65.523 L 197.897 65.523 L 197.897 65.523 Q 197.986 63.398 198.039 61.698 L 198.039 61.698 L 198.039 61.698 Q 198.092 59.998 198.128 58.758 L 198.128 58.758 L 198.128 58.758 Q 197.526 57.519 197.065 56.757 L 197.065 56.757 L 197.065 56.757 Q 196.605 55.996 196.109 55.588 L 196.109 55.588 L 196.109 55.588 Q 195.613 55.181 195.011 55.04 L 195.011 55.04 L 195.011 55.04 Q 194.409 54.898 193.559 54.898 L 193.559 54.898 L 193.559 54.898 Q 192.85 54.898 191.805 55.163 L 191.805 55.163 L 191.805 55.163 Q 190.761 55.429 189.645 55.925 L 189.645 55.925 L 189.645 55.925 Q 188.529 56.421 187.414 57.147 L 187.414 57.147 L 187.414 57.147 Q 186.298 57.873 185.43 58.812 L 185.43 58.812 L 185.43 58.812 Q 184.563 59.75 184.014 60.883 L 184.014 60.883 L 184.014 60.883 Q 183.465 62.017 183.465 63.327 L 183.465 63.327 L 183.465 63.327 Q 183.465 64.461 183.766 65.134 L 183.766 65.134 L 183.766 65.134 Q 184.067 65.807 184.474 66.143 L 184.474 66.143 L 184.474 66.143 Q 184.881 66.48 185.289 66.568 L 185.289 66.568 L 185.289 66.568 Q 185.696 66.657 185.873 66.657 L 185.873 66.657 L 185.873 66.657 Q 186.758 66.657 187.325 66.356 L 187.325 66.356 L 187.325 66.356 Q 187.892 66.055 188.352 65.718 L 188.352 65.718 L 188.352 65.718 Q 188.813 65.382 189.22 65.081 L 189.22 65.081 L 189.22 65.081 Q 189.627 64.779 190.159 64.779 L 190.159 64.779 L 190.159 64.779 Q 190.584 64.779 191.062 64.974 L 191.062 64.974 L 191.062 64.974 Q 191.54 65.169 191.947 65.594 L 191.947 65.594 L 191.947 65.594 Q 192.354 66.019 192.638 66.71 L 192.638 66.71 L 192.638 66.71 Q 192.921 67.4 192.921 68.392 L 192.921 68.392 L 192.921 68.392 Q 192.921 69.809 192.372 70.836 L 192.372 70.836 L 192.372 70.836 Q 191.823 71.863 190.955 72.554 L 190.955 72.554 L 190.955 72.554 Q 190.088 73.244 188.972 73.581 L 188.972 73.581 L 188.972 73.581 Q 187.856 73.917 186.758 73.917 L 186.758 73.917 L 186.758 73.917 Q 185.058 73.917 183.695 73.333 L 183.695 73.333 L 183.695 73.333 Q 182.331 72.749 181.375 71.721 L 181.375 71.721 L 181.375 71.721 Q 180.419 70.694 179.923 69.313 L 179.923 69.313 L 179.923 69.313 Q 179.427 67.932 179.427 66.373 L 179.427 66.373 L 179.427 66.373 Q 179.427 62.69 181.127 59.945 L 181.127 59.945 L 181.127 59.945 Q 182.827 57.2 185.59 55.358 L 185.59 55.358 L 185.59 55.358 Q 188.352 53.517 191.841 52.613 L 191.841 52.613 L 191.841 52.613 Q 195.33 51.71 198.942 51.71 L 198.942 51.71 L 198.942 51.71 Q 201.847 51.71 203.795 52.295 L 203.795 52.295 L 203.795 52.295 Q 205.743 52.879 207.053 53.853 L 207.053 53.853 L 207.053 53.853 Q 208.363 54.827 209.213 56.137 L 209.213 56.137 L 209.213 56.137 Q 210.064 57.448 210.772 58.9 L 210.772 58.9 L 220.122 77.884 L 220.122 77.884 Q 223.77 70.694 226.763 65.01 L 226.763 65.01 L 226.763 65.01 Q 229.756 59.325 232.306 55.004 L 232.306 55.004 L 232.306 55.004 Q 234.856 50.683 237.07 47.637 L 237.07 47.637 L 237.07 47.637 Q 239.283 44.591 241.355 42.661 L 241.355 42.661 L 241.355 42.661 Q 243.427 40.731 245.464 39.845 L 245.464 39.845 L 245.464 39.845 Q 247.5 38.96 249.696 38.96 L 249.696 38.96 L 249.696 38.96 Q 251.573 38.96 252.742 39.757 L 252.742 39.757 L 252.742 39.757 Q 253.911 40.554 253.911 42.147 L 253.911 42.147 L 253.911 42.147 Q 253.911 43.564 253.451 44.485 L 253.451 44.485 L 253.451 44.485 Q 252.99 45.406 252.176 45.406 L 252.176 45.406 L 252.176 45.406 Q 251.503 45.406 251.148 44.892 L 251.148 44.892 L 251.148 44.892 Q 250.794 44.379 250.458 43.777 L 250.458 43.777 L 250.458 43.777 Q 250.121 43.174 249.625 42.661 L 249.625 42.661 L 249.625 42.661 Q 249.13 42.147 248.173 42.147 L 248.173 42.147 L 248.173 42.147 Q 247.607 42.147 246.792 42.466 L 246.792 42.466 L 246.792 42.466 Q 245.977 42.785 245.11 43.422 L 245.11 43.422 L 245.11 43.422 Q 244.242 44.06 243.392 45.016 L 243.392 45.016 L 243.392 45.016 Q 242.542 45.972 241.904 47.248 L 241.904 47.248 L 241.904 47.248 Q 241.267 48.523 240.913 50.152 L 240.913 50.152 L 240.913 50.152 Q 240.558 51.781 240.7 53.729 L 240.7 53.729 L 240.7 53.729 Q 240.842 55.96 241.09 58.953 L 241.09 58.953 L 241.09 58.953 Q 241.338 61.946 241.639 65.364 L 241.639 65.364 L 241.639 65.364 Q 241.94 68.782 242.276 72.43 L 242.276 72.43 L 242.276 72.43 Q 242.613 76.078 242.967 79.62 L 242.967 79.62 L 242.967 79.62 Q 243.321 83.161 243.658 86.42 L 243.658 86.42 L 243.658 86.42 Q 243.994 89.678 244.277 92.317 L 244.277 92.317 L 244.277 92.317 Q 244.561 94.956 244.809 96.78 L 244.809 96.78 L 244.809 96.78 Q 245.057 98.604 245.198 99.277 L 245.198 99.277 L 245.198 99.277 Q 245.411 100.304 245.765 100.924 L 245.765 100.924 L 245.765 100.924 Q 246.119 101.543 247.04 101.543 L 247.04 101.543 L 247.04 101.543 Q 247.996 101.543 248.846 101.207 L 248.846 101.207 L 248.846 101.207 Q 249.696 100.87 250.369 100.516 L 250.369 100.516 L 250.936 101.827 L 250.936 101.827 Q 250.298 102.287 249.324 102.872 L 249.324 102.872 L 249.324 102.872 Q 248.35 103.456 247.093 103.987 L 247.093 103.987 L 247.093 103.987 Q 245.836 104.519 244.33 104.873 L 244.33 104.873 L 244.33 104.873 Q 242.825 105.227 241.09 105.227 L 241.09 105.227 L 241.09 105.227 Q 238.646 105.227 237.229 104.607 L 237.229 104.607 L 237.229 104.607 Q 235.812 103.987 235.051 103.084 L 235.051 103.084 L 235.051 103.084 Q 234.289 102.181 234.024 101.172 L 234.024 101.172 L 234.024 101.172 Q 233.758 100.162 233.617 99.348 L 233.617 99.348 L 233.617 99.348 Q 233.298 97.541 232.944 94.991 L 232.944 94.991 L 232.944 94.991 Q 232.589 92.441 232.253 89.519 L 232.253 89.519 L 232.253 89.519 Q 231.916 86.597 231.598 83.498 L 231.598 83.498 L 231.598 83.498 Q 231.279 80.399 231.013 77.441 L 231.013 77.441 L 231.013 77.441 Q 230.748 74.484 230.535 71.863 L 230.535 71.863 L 230.535 71.863 Q 230.323 69.242 230.181 67.294 L 230.181 67.294 L 230.181 67.294 Q 229.118 69.03 228.215 70.641 L 228.215 70.641 L 228.215 70.641 Q 227.312 72.253 226.462 73.935 L 226.462 73.935 L 226.462 73.935 Q 225.612 75.617 224.727 77.459 L 224.727 77.459 L 224.727 77.459 Q 223.841 79.301 222.867 81.461 L 222.867 81.461 L 222.867 81.461 Q 221.893 83.622 220.742 86.207 L 220.742 86.207 L 220.742 86.207 Q 219.591 88.793 218.21 91.981 L 218.21 91.981 Z  M 266.732 73.776 L 266.732 101.473 L 266.732 101.473 Q 266.732 101.933 266.573 102.588 L 266.573 102.588 L 266.573 102.588 Q 266.414 103.243 265.829 103.828 L 265.829 103.828 L 265.829 103.828 Q 265.245 104.412 264.147 104.82 L 264.147 104.82 L 264.147 104.82 Q 263.049 105.227 261.172 105.227 L 261.172 105.227 L 261.172 105.227 Q 259.295 105.227 258.232 104.784 L 258.232 104.784 L 258.232 104.784 Q 257.17 104.341 256.638 103.739 L 256.638 103.739 L 256.638 103.739 Q 256.107 103.137 255.983 102.5 L 255.983 102.5 L 255.983 102.5 Q 255.859 101.862 255.859 101.473 L 255.859 101.473 L 255.859 74.13 L 255.859 74.13 Q 255.859 73.103 255.381 72.341 L 255.381 72.341 L 255.381 72.341 Q 254.903 71.58 253.769 71.58 L 253.769 71.58 L 253.769 71.58 Q 253.167 71.58 252.742 71.792 L 252.742 71.792 L 252.742 71.792 Q 252.317 72.005 251.821 72.394 L 251.821 72.394 L 251.078 71.509 L 251.078 71.509 Q 251.892 70.836 252.902 70.181 L 252.902 70.181 L 252.902 70.181 Q 253.911 69.525 255.08 69.03 L 255.08 69.03 L 255.08 69.03 Q 256.249 68.534 257.595 68.215 L 257.595 68.215 L 257.595 68.215 Q 258.94 67.896 260.428 67.896 L 260.428 67.896 L 260.428 67.896 Q 262.73 67.896 264.005 68.516 L 264.005 68.516 L 264.005 68.516 Q 265.28 69.136 265.882 70.039 L 265.882 70.039 L 265.882 70.039 Q 266.484 70.942 266.608 71.969 L 266.608 71.969 L 266.608 71.969 Q 266.732 72.996 266.732 73.776 L 266.732 73.776 Z  M 254.761 59.821 L 254.761 59.821 L 254.761 59.821 Q 254.761 58.829 255.204 57.926 L 255.204 57.926 L 255.204 57.926 Q 255.647 57.023 256.443 56.35 L 256.443 56.35 L 256.443 56.35 Q 257.24 55.677 258.285 55.287 L 258.285 55.287 L 258.285 55.287 Q 259.33 54.898 260.57 54.898 L 260.57 54.898 L 260.57 54.898 Q 261.774 54.898 262.819 55.287 L 262.819 55.287 L 262.819 55.287 Q 263.864 55.677 264.643 56.35 L 264.643 56.35 L 264.643 56.35 Q 265.422 57.023 265.865 57.926 L 265.865 57.926 L 265.865 57.926 Q 266.307 58.829 266.307 59.821 L 266.307 59.821 L 266.307 59.821 Q 266.307 60.848 265.865 61.734 L 265.865 61.734 L 265.865 61.734 Q 265.422 62.619 264.643 63.274 L 264.643 63.274 L 264.643 63.274 Q 263.864 63.929 262.819 64.319 L 262.819 64.319 L 262.819 64.319 Q 261.774 64.709 260.57 64.709 L 260.57 64.709 L 260.57 64.709 Q 259.33 64.709 258.285 64.319 L 258.285 64.319 L 258.285 64.319 Q 257.24 63.929 256.443 63.274 L 256.443 63.274 L 256.443 63.274 Q 255.647 62.619 255.204 61.734 L 255.204 61.734 L 255.204 61.734 Q 254.761 60.848 254.761 59.821 Z  M 296.484 87.022 L 296.484 87.022 L 296.484 87.022 Q 296.484 82.559 296.076 79.885 L 296.076 79.885 L 296.076 79.885 Q 295.669 77.211 294.996 75.812 L 294.996 75.812 L 294.996 75.812 Q 294.323 74.413 293.508 73.97 L 293.508 73.97 L 293.508 73.97 Q 292.694 73.528 291.844 73.528 L 291.844 73.528 L 291.844 73.528 Q 290.817 73.528 290.02 74.077 L 290.02 74.077 L 290.02 74.077 Q 289.223 74.626 288.638 75.334 L 288.638 75.334 L 288.638 75.334 Q 288.054 76.042 287.647 76.751 L 287.647 76.751 L 287.647 76.751 Q 287.239 77.459 286.956 77.813 L 286.956 77.813 L 286.956 101.473 L 286.956 101.473 Q 286.956 101.933 286.814 102.588 L 286.814 102.588 L 286.814 102.588 Q 286.673 103.243 286.124 103.828 L 286.124 103.828 L 286.124 103.828 Q 285.575 104.412 284.495 104.82 L 284.495 104.82 L 284.495 104.82 Q 283.414 105.227 281.537 105.227 L 281.537 105.227 L 281.537 105.227 Q 279.66 105.227 278.58 104.784 L 278.58 104.784 L 278.58 104.784 Q 277.499 104.341 276.933 103.739 L 276.933 103.739 L 276.933 103.739 Q 276.366 103.137 276.224 102.5 L 276.224 102.5 L 276.224 102.5 Q 276.083 101.862 276.083 101.473 L 276.083 101.473 L 276.083 74.13 L 276.083 74.13 Q 276.083 73.103 275.605 72.341 L 275.605 72.341 L 275.605 72.341 Q 275.126 71.58 273.993 71.58 L 273.993 71.58 L 273.993 71.58 Q 273.391 71.58 272.966 71.792 L 272.966 71.792 L 272.966 71.792 Q 272.541 72.005 272.045 72.394 L 272.045 72.394 L 271.301 71.509 L 271.301 71.509 Q 272.116 70.836 273.125 70.181 L 273.125 70.181 L 273.125 70.181 Q 274.135 69.525 275.304 69.03 L 275.304 69.03 L 275.304 69.03 Q 276.472 68.534 277.818 68.215 L 277.818 68.215 L 277.818 68.215 Q 279.164 67.896 280.652 67.896 L 280.652 67.896 L 280.652 67.896 Q 282.954 67.896 284.229 68.658 L 284.229 68.658 L 284.229 68.658 Q 285.504 69.419 286.106 70.482 L 286.106 70.482 L 286.106 70.482 Q 286.708 71.544 286.832 72.695 L 286.832 72.695 L 286.832 72.695 Q 286.956 73.847 286.956 74.626 L 286.956 74.626 L 286.956 74.626 Q 288.267 72.749 289.931 71.261 L 289.931 71.261 L 289.931 71.261 Q 290.604 70.623 291.436 70.021 L 291.436 70.021 L 291.436 70.021 Q 292.269 69.419 293.207 68.941 L 293.207 68.941 L 293.207 68.941 Q 294.146 68.463 295.191 68.18 L 295.191 68.18 L 295.191 68.18 Q 296.236 67.896 297.334 67.896 L 297.334 67.896 L 297.334 67.896 Q 299.742 67.896 301.601 68.817 L 301.601 68.817 L 301.601 68.817 Q 303.461 69.738 304.736 71.899 L 304.736 71.899 L 304.736 71.899 Q 306.011 74.059 306.684 77.619 L 306.684 77.619 L 306.684 77.619 Q 307.357 81.178 307.357 86.455 L 307.357 86.455 L 307.357 86.455 Q 307.357 91.591 306.436 95.381 L 306.436 95.381 L 306.436 95.381 Q 305.515 99.17 304.028 101.827 L 304.028 101.827 L 304.028 101.827 Q 302.54 104.483 300.663 106.165 L 300.663 106.165 L 300.663 106.165 Q 298.786 107.848 296.873 108.804 L 296.873 108.804 L 296.873 108.804 Q 294.961 109.76 293.207 110.132 L 293.207 110.132 L 293.207 110.132 Q 291.454 110.504 290.179 110.54 L 290.179 110.54 L 289.79 109.087 L 289.79 109.087 Q 290.852 108.84 291.755 108.308 L 291.755 108.308 L 291.755 108.308 Q 292.658 107.777 293.402 106.75 L 293.402 106.75 L 293.402 106.75 Q 294.146 105.723 294.713 104.147 L 294.713 104.147 L 294.713 104.147 Q 295.279 102.571 295.687 100.198 L 295.687 100.198 L 295.687 100.198 Q 296.094 97.825 296.289 94.584 L 296.289 94.584 L 296.289 94.584 Q 296.484 91.343 296.484 87.022 Z  M 325.987 73.776 L 325.987 101.473 L 325.987 101.473 Q 325.987 101.933 325.827 102.588 L 325.827 102.588 L 325.827 102.588 Q 325.668 103.243 325.084 103.828 L 325.084 103.828 L 325.084 103.828 Q 324.499 104.412 323.401 104.82 L 323.401 104.82 L 323.401 104.82 Q 322.303 105.227 320.426 105.227 L 320.426 105.227 L 320.426 105.227 Q 318.549 105.227 317.486 104.784 L 317.486 104.784 L 317.486 104.784 Q 316.424 104.341 315.893 103.739 L 315.893 103.739 L 315.893 103.739 Q 315.361 103.137 315.237 102.5 L 315.237 102.5 L 315.237 102.5 Q 315.113 101.862 315.113 101.473 L 315.113 101.473 L 315.113 74.13 L 315.113 74.13 Q 315.113 73.103 314.635 72.341 L 314.635 72.341 L 314.635 72.341 Q 314.157 71.58 313.024 71.58 L 313.024 71.58 L 313.024 71.58 Q 312.422 71.58 311.997 71.792 L 311.997 71.792 L 311.997 71.792 Q 311.572 72.005 311.076 72.394 L 311.076 72.394 L 310.332 71.509 L 310.332 71.509 Q 311.147 70.836 312.156 70.181 L 312.156 70.181 L 312.156 70.181 Q 313.165 69.525 314.334 69.03 L 314.334 69.03 L 314.334 69.03 Q 315.503 68.534 316.849 68.215 L 316.849 68.215 L 316.849 68.215 Q 318.195 67.896 319.682 67.896 L 319.682 67.896 L 319.682 67.896 Q 321.985 67.896 323.26 68.516 L 323.26 68.516 L 323.26 68.516 Q 324.535 69.136 325.137 70.039 L 325.137 70.039 L 325.137 70.039 Q 325.739 70.942 325.863 71.969 L 325.863 71.969 L 325.863 71.969 Q 325.987 72.996 325.987 73.776 L 325.987 73.776 Z  M 314.015 59.821 L 314.015 59.821 L 314.015 59.821 Q 314.015 58.829 314.458 57.926 L 314.458 57.926 L 314.458 57.926 Q 314.901 57.023 315.698 56.35 L 315.698 56.35 L 315.698 56.35 Q 316.495 55.677 317.54 55.287 L 317.54 55.287 L 317.54 55.287 Q 318.584 54.898 319.824 54.898 L 319.824 54.898 L 319.824 54.898 Q 321.028 54.898 322.073 55.287 L 322.073 55.287 L 322.073 55.287 Q 323.118 55.677 323.897 56.35 L 323.897 56.35 L 323.897 56.35 Q 324.676 57.023 325.119 57.926 L 325.119 57.926 L 325.119 57.926 Q 325.562 58.829 325.562 59.821 L 325.562 59.821 L 325.562 59.821 Q 325.562 60.848 325.119 61.734 L 325.119 61.734 L 325.119 61.734 Q 324.676 62.619 323.897 63.274 L 323.897 63.274 L 323.897 63.274 Q 323.118 63.929 322.073 64.319 L 322.073 64.319 L 322.073 64.319 Q 321.028 64.709 319.824 64.709 L 319.824 64.709 L 319.824 64.709 Q 318.584 64.709 317.54 64.319 L 317.54 64.319 L 317.54 64.319 Q 316.495 63.929 315.698 63.274 L 315.698 63.274 L 315.698 63.274 Q 314.901 62.619 314.458 61.734 L 314.458 61.734 L 314.458 61.734 Q 314.015 60.848 314.015 59.821 Z  M 346.281 70.73 L 346.281 70.73 L 346.281 70.73 Q 345.467 70.73 344.741 70.942 L 344.741 70.942 L 344.741 70.942 Q 344.015 71.155 343.448 71.633 L 343.448 71.633 L 343.448 71.633 Q 342.881 72.111 342.562 72.837 L 342.562 72.837 L 342.562 72.837 Q 342.244 73.563 342.244 74.555 L 342.244 74.555 L 342.244 74.555 Q 342.244 75.936 343.253 77.3 L 343.253 77.3 L 343.253 77.3 Q 344.263 78.663 345.768 80.133 L 345.768 80.133 L 345.768 80.133 Q 347.273 81.603 349.026 83.179 L 349.026 83.179 L 349.026 83.179 Q 350.779 84.755 352.285 86.508 L 352.285 86.508 L 352.285 86.508 Q 353.79 88.262 354.799 90.245 L 354.799 90.245 L 354.799 90.245 Q 355.809 92.228 355.809 94.495 L 355.809 94.495 L 355.809 94.495 Q 355.809 97.045 354.941 99.029 L 354.941 99.029 L 354.941 99.029 Q 354.073 101.012 352.462 102.393 L 352.462 102.393 L 352.462 102.393 Q 350.85 103.775 348.566 104.501 L 348.566 104.501 L 348.566 104.501 Q 346.281 105.227 343.483 105.227 L 343.483 105.227 L 343.483 105.227 Q 341.039 105.227 339.056 104.536 L 339.056 104.536 L 339.056 104.536 Q 337.073 103.846 335.532 102.836 L 335.532 102.836 L 335.532 102.836 Q 333.991 101.827 332.893 100.693 L 332.893 100.693 L 332.893 100.693 Q 331.795 99.56 331.193 98.639 L 331.193 98.639 L 332.433 97.754 L 332.433 97.754 Q 332.893 98.285 333.602 98.905 L 333.602 98.905 L 333.602 98.905 Q 334.31 99.525 335.178 100.056 L 335.178 100.056 L 335.178 100.056 Q 336.046 100.587 337.037 100.924 L 337.037 100.924 L 337.037 100.924 Q 338.029 101.26 339.056 101.26 L 339.056 101.26 L 339.056 101.26 Q 341.606 101.26 343.235 100.038 L 343.235 100.038 L 343.235 100.038 Q 344.865 98.816 344.865 96.408 L 344.865 96.408 L 344.865 96.408 Q 344.865 95.062 343.979 93.627 L 343.979 93.627 L 343.979 93.627 Q 343.094 92.193 341.748 90.67 L 341.748 90.67 L 341.748 90.67 Q 340.402 89.147 338.844 87.518 L 338.844 87.518 L 338.844 87.518 Q 337.285 85.889 335.939 84.153 L 335.939 84.153 L 335.939 84.153 Q 334.593 82.418 333.708 80.576 L 333.708 80.576 L 333.708 80.576 Q 332.822 78.734 332.822 76.751 L 332.822 76.751 L 332.822 76.751 Q 332.822 74.519 333.726 72.855 L 333.726 72.855 L 333.726 72.855 Q 334.629 71.19 336.134 70.092 L 336.134 70.092 L 336.134 70.092 Q 337.639 68.994 339.57 68.445 L 339.57 68.445 L 339.57 68.445 Q 341.5 67.896 343.554 67.896 L 343.554 67.896 L 343.554 67.896 Q 345.927 67.896 347.875 68.321 L 347.875 68.321 L 347.875 68.321 Q 349.823 68.746 351.222 69.614 L 351.222 69.614 L 351.222 69.614 Q 352.621 70.482 353.383 71.792 L 353.383 71.792 L 353.383 71.792 Q 354.144 73.103 354.144 74.838 L 354.144 74.838 L 354.144 74.838 Q 354.144 76.184 353.259 77.176 L 353.259 77.176 L 353.259 77.176 Q 352.373 78.168 350.779 78.168 L 350.779 78.168 L 350.779 78.168 Q 349.256 78.168 348.46 77.512 L 348.46 77.512 L 348.46 77.512 Q 347.663 76.857 347.663 75.724 L 347.663 75.724 L 347.663 75.724 Q 347.663 74.98 348.035 74.555 L 348.035 74.555 L 348.035 74.555 Q 348.406 74.13 348.867 73.864 L 348.867 73.864 L 348.867 73.864 Q 349.327 73.599 349.699 73.404 L 349.699 73.404 L 349.699 73.404 Q 350.071 73.209 350.071 72.89 L 350.071 72.89 L 350.071 72.89 Q 350.071 71.899 349.009 71.314 L 349.009 71.314 L 349.009 71.314 Q 347.946 70.73 346.281 70.73 Z  M 378.653 70.942 L 373.164 70.942 L 373.164 97.116 L 373.164 97.116 Q 373.164 98.993 373.872 99.719 L 373.872 99.719 L 373.872 99.719 Q 374.58 100.445 375.82 100.445 L 375.82 100.445 L 375.82 100.445 Q 376.776 100.445 377.52 99.914 L 377.52 99.914 L 377.52 99.914 Q 378.264 99.383 378.795 98.71 L 378.795 98.71 L 378.795 98.71 Q 379.433 97.966 379.893 96.974 L 379.893 96.974 L 380.991 97.47 L 380.991 97.47 Q 380.46 98.604 379.734 99.95 L 379.734 99.95 L 379.734 99.95 Q 379.008 101.295 377.803 102.447 L 377.803 102.447 L 377.803 102.447 Q 376.599 103.598 374.775 104.377 L 374.775 104.377 L 374.775 104.377 Q 372.951 105.156 370.189 105.156 L 370.189 105.156 L 370.189 105.156 Q 368.63 105.156 367.196 104.696 L 367.196 104.696 L 367.196 104.696 Q 365.761 104.235 364.646 103.243 L 364.646 103.243 L 364.646 103.243 Q 363.53 102.252 362.857 100.764 L 362.857 100.764 L 362.857 100.764 Q 362.184 99.277 362.184 97.187 L 362.184 97.187 L 362.184 70.942 L 358.217 70.942 L 358.217 68.392 L 358.217 68.392 Q 359.209 68.392 360.98 67.879 L 360.98 67.879 L 360.98 67.879 Q 362.751 67.365 364.61 66.161 L 364.61 66.161 L 364.61 66.161 Q 366.47 64.957 368.063 62.938 L 368.063 62.938 L 368.063 62.938 Q 369.657 60.919 370.33 57.944 L 370.33 57.944 L 373.164 57.944 L 373.164 68.392 L 378.937 68.392 L 378.937 68.392 Q 381.77 68.392 381.77 67.436 L 381.77 67.436 L 381.77 67.436 Q 381.77 67.082 381.416 66.958 L 381.416 66.958 L 381.416 66.958 Q 381.062 66.834 380.619 66.639 L 380.619 66.639 L 380.619 66.639 Q 380.176 66.444 379.822 66.09 L 379.822 66.09 L 379.822 66.09 Q 379.468 65.736 379.468 64.921 L 379.468 64.921 L 379.468 64.921 Q 379.468 63.929 380.088 63.363 L 380.088 63.363 L 380.088 63.363 Q 380.708 62.796 381.699 62.796 L 381.699 62.796 L 381.699 62.796 Q 382.337 62.796 382.815 63.062 L 382.815 63.062 L 382.815 63.062 Q 383.293 63.327 383.612 63.77 L 383.612 63.77 L 383.612 63.77 Q 383.931 64.213 384.09 64.779 L 384.09 64.779 L 384.09 64.779 Q 384.249 65.346 384.249 65.913 L 384.249 65.913 L 384.249 65.913 Q 384.249 68.215 382.921 69.579 L 382.921 69.579 L 382.921 69.579 Q 381.593 70.942 378.653 70.942 L 378.653 70.942 Z  M 397.425 75.369 L 397.425 75.369 L 397.425 75.369 Q 398.771 73.315 400.294 71.651 L 400.294 71.651 L 400.294 71.651 Q 400.931 70.942 401.675 70.269 L 401.675 70.269 L 401.675 70.269 Q 402.419 69.596 403.216 69.065 L 403.216 69.065 L 403.216 69.065 Q 404.013 68.534 404.863 68.215 L 404.863 68.215 L 404.863 68.215 Q 405.713 67.896 406.563 67.896 L 406.563 67.896 L 406.563 67.896 Q 408.369 67.896 409.396 68.977 L 409.396 68.977 L 409.396 68.977 Q 410.423 70.057 410.423 72.005 L 410.423 72.005 L 410.423 72.005 Q 410.423 73.209 410.229 74.325 L 410.229 74.325 L 410.229 74.325 Q 410.034 75.44 409.467 77.034 L 409.467 77.034 L 408.475 77.034 L 408.475 77.034 Q 408.263 75.936 407.484 75.21 L 407.484 75.21 L 407.484 75.21 Q 406.705 74.484 405.217 74.484 L 405.217 74.484 L 405.217 74.484 Q 404.119 74.484 403.056 74.891 L 403.056 74.891 L 403.056 74.891 Q 401.994 75.299 400.985 75.901 L 400.985 75.901 L 400.985 75.901 Q 399.975 76.503 399.072 77.211 L 399.072 77.211 L 399.072 77.211 Q 398.169 77.92 397.425 78.557 L 397.425 78.557 L 397.425 101.543 L 397.425 101.543 Q 397.425 102.004 397.283 102.641 L 397.283 102.641 L 397.283 102.641 Q 397.142 103.279 396.593 103.846 L 396.593 103.846 L 396.593 103.846 Q 396.044 104.412 394.963 104.82 L 394.963 104.82 L 394.963 104.82 Q 393.883 105.227 392.006 105.227 L 392.006 105.227 L 392.006 105.227 Q 390.129 105.227 389.049 104.784 L 389.049 104.784 L 389.049 104.784 Q 387.968 104.341 387.402 103.739 L 387.402 103.739 L 387.402 103.739 Q 386.835 103.137 386.693 102.5 L 386.693 102.5 L 386.693 102.5 Q 386.552 101.862 386.552 101.473 L 386.552 101.473 L 386.552 74.13 L 386.552 74.13 Q 386.552 73.103 386.074 72.341 L 386.074 72.341 L 386.074 72.341 Q 385.595 71.58 384.462 71.58 L 384.462 71.58 L 384.462 71.58 Q 383.86 71.58 383.435 71.792 L 383.435 71.792 L 383.435 71.792 Q 383.01 72.005 382.514 72.394 L 382.514 72.394 L 381.77 71.509 L 381.77 71.509 Q 382.585 70.836 383.594 70.181 L 383.594 70.181 L 383.594 70.181 Q 384.604 69.525 385.772 69.03 L 385.772 69.03 L 385.772 69.03 Q 386.941 68.534 388.287 68.215 L 388.287 68.215 L 388.287 68.215 Q 389.633 67.896 391.121 67.896 L 391.121 67.896 L 391.121 67.896 Q 392.644 67.896 393.724 68.304 L 393.724 68.304 L 393.724 68.304 Q 394.804 68.711 395.495 69.366 L 395.495 69.366 L 395.495 69.366 Q 396.185 70.021 396.575 70.836 L 396.575 70.836 L 396.575 70.836 Q 396.965 71.651 397.159 72.483 L 397.159 72.483 L 397.159 72.483 Q 397.354 73.315 397.39 74.077 L 397.39 74.077 L 397.39 74.077 Q 397.425 74.838 397.425 75.369 Z  M 443.15 73.457 L 443.15 73.457 L 443.15 73.457 Q 443.15 79.938 441.892 85.977 L 441.892 85.977 L 441.892 85.977 Q 440.635 92.016 438.421 97.311 L 438.421 97.311 L 438.421 97.311 Q 436.208 102.606 433.162 106.98 L 433.162 106.98 L 433.162 106.98 Q 430.116 111.354 426.539 114.471 L 426.539 114.471 L 426.539 114.471 Q 422.961 117.588 418.977 119.323 L 418.977 119.323 L 418.977 119.323 Q 414.992 121.059 410.919 121.059 L 410.919 121.059 L 410.919 121.059 Q 407.802 121.059 406.102 120.014 L 406.102 120.014 L 406.102 120.014 Q 404.402 118.969 404.402 117.198 L 404.402 117.198 L 404.402 117.198 Q 404.402 116.525 404.615 115.888 L 404.615 115.888 L 404.615 115.888 Q 404.827 115.25 405.182 114.754 L 405.182 114.754 L 405.182 114.754 Q 405.536 114.259 406.032 113.957 L 406.032 113.957 L 406.032 113.957 Q 406.527 113.656 407.094 113.656 L 407.094 113.656 L 407.094 113.656 Q 407.767 113.656 408.21 114.329 L 408.21 114.329 L 408.21 114.329 Q 408.653 115.002 409.148 115.799 L 409.148 115.799 L 409.148 115.799 Q 409.644 116.596 410.353 117.269 L 410.353 117.269 L 410.353 117.269 Q 411.061 117.942 412.301 117.942 L 412.301 117.942 L 412.301 117.942 Q 413.894 117.942 415.63 117.393 L 415.63 117.393 L 415.63 117.393 Q 417.365 116.844 419.119 115.817 L 419.119 115.817 L 419.119 115.817 Q 420.872 114.79 422.625 113.32 L 422.625 113.32 L 422.625 113.32 Q 424.378 111.85 426.078 110.044 L 426.078 110.044 L 426.078 110.044 Q 425.087 106.467 423.794 102.234 L 423.794 102.234 L 423.794 102.234 Q 422.501 98.002 421.067 93.716 L 421.067 93.716 L 421.067 93.716 Q 419.632 89.43 418.127 85.446 L 418.127 85.446 L 418.127 85.446 Q 416.622 81.461 415.187 78.38 L 415.187 78.38 L 415.187 78.38 Q 413.753 75.299 412.425 73.439 L 412.425 73.439 L 412.425 73.439 Q 411.096 71.58 410.069 71.58 L 410.069 71.58 L 410.069 71.58 Q 409.396 71.58 409.024 71.792 L 409.024 71.792 L 409.024 71.792 Q 408.653 72.005 408.157 72.394 L 408.157 72.394 L 407.448 71.509 L 407.448 71.509 Q 408.157 70.907 408.936 70.269 L 408.936 70.269 L 408.936 70.269 Q 409.715 69.632 410.778 69.1 L 410.778 69.1 L 410.778 69.1 Q 411.84 68.569 413.257 68.233 L 413.257 68.233 L 413.257 68.233 Q 414.674 67.896 416.657 67.896 L 416.657 67.896 L 416.657 67.896 Q 418.818 67.896 420.677 68.87 L 420.677 68.87 L 420.677 68.87 Q 422.536 69.844 424.059 72.465 L 424.059 72.465 L 424.059 72.465 Q 425.157 74.413 426.344 77.14 L 426.344 77.14 L 426.344 77.14 Q 427.53 79.868 428.735 83.232 L 428.735 83.232 L 428.735 83.232 Q 429.939 86.597 431.161 90.511 L 431.161 90.511 L 431.161 90.511 Q 432.383 94.424 433.622 98.71 L 433.622 98.71 L 433.622 98.71 Q 435.818 94.106 437.164 88.952 L 437.164 88.952 L 437.164 88.952 Q 438.51 83.799 438.51 78.345 L 438.51 78.345 L 438.51 78.345 Q 438.51 76.397 438.262 75.015 L 438.262 75.015 L 438.262 75.015 Q 438.014 73.634 437.695 72.66 L 437.695 72.66 L 437.695 72.66 Q 437.377 71.686 437.129 70.995 L 437.129 70.995 L 437.129 70.995 Q 436.881 70.305 436.881 69.773 L 436.881 69.773 L 436.881 69.773 Q 436.881 69.242 437.306 68.87 L 437.306 68.87 L 437.306 68.87 Q 437.731 68.498 438.333 68.286 L 438.333 68.286 L 438.333 68.286 Q 438.935 68.073 439.555 67.985 L 439.555 67.985 L 439.555 67.985 Q 440.175 67.896 440.6 67.896 L 440.6 67.896 L 440.6 67.896 Q 441.556 67.896 442.069 68.286 L 442.069 68.286 L 442.069 68.286 Q 442.583 68.675 442.831 69.402 L 442.831 69.402 L 442.831 69.402 Q 443.079 70.128 443.114 71.155 L 443.114 71.155 L 443.114 71.155 Q 443.15 72.182 443.15 73.457 Z " fill="rgb(59,103,145)"/></g><g filter="url(#PjqCCt53bU6Ok2eJERLPepRd6LN5VUkb)"><path d=" M 209.428 385.382 C 202.242 384.81 173.885 372.4 152.829 346.486 C 150.315 344.539 164.401 352.543 182.512 351.006 C 160.582 342.016 131.368 324.799 118.898 289.238 C 115.72 286.27 123.422 293.263 149.744 300.308 C 153.407 301.904 106.856 280.533 83.382 203.76 C 81.769 201.538 89.274 206.512 109.133 211.812 C 111.119 212.614 67.182 188.656 53.96 122.534 C 52.376 120.07 60.935 131.723 81.334 132.446 C 77.923 131.17 53.03 118.41 43.367 59.373 C 45.241 60.462 51.81 70.692 59.649 68.182 C 61.239 69.313 42.394 59.075 34.277 4.636 C 33.385 2.538 43.958 5.634 61.975 23.317 C 64.08 24.9 58.254 20.002 52.859 6.551 C 51.444 4.344 94.685 33.939 106.631 64.704 C 107.74 63.577 109.937 60.049 105.59 44.111 C 105.272 42.776 155.019 92.104 153.657 134.309 C 155.607 132.946 159.12 131.769 160.16 106.352 C 160.454 103.631 205.255 173.411 195.638 218.356 C 199.4 212.568 203.153 208.811 202.235 184.258 C 202.431 180.697 228.719 234.694 219.362 289.226 C 225.573 283.363 225.353 282.048 228.177 265.06 C 228.775 262.426 242.441 320.942 227.687 337.947 C 231.066 338.221 236.474 329.871 240.57 320.933 C 243.268 316.381 244.48 362.692 217.351 383.98 C 215.407 385.381 212.498 385.844 209.428 385.382 Z " fill="rgb(195,224,229)"/><path d=" M 120.567 145.809 C 105.171 143.394 93.328 138.047 81.334 132.446 C 77.923 131.17 53.03 118.41 43.367 59.373 C 45.241 60.462 51.81 70.692 59.649 68.182 C 61.239 69.313 42.394 59.075 34.277 4.636 C 33.385 2.538 43.958 5.634 61.975 23.317 C 64.08 24.9 58.254 20.002 52.859 6.551 C 51.444 4.344 94.685 33.939 106.631 64.704 C 107.74 63.577 109.937 60.049 105.59 44.111 C 105.374 43.202 128.376 65.789 142.643 93.621 C 143.067 94.449 134.718 127.72 120.567 145.809 Z " fill="rgb(120,182,193)"/><path d=" M 34.277 4.636 C 33.385 2.538 43.958 5.634 61.975 23.317 C 64.08 24.9 58.254 20.002 52.859 6.551 C 51.444 4.344 94.685 33.939 106.631 64.704 C 107.74 63.577 109.937 60.049 105.59 44.111 C 105.272 42.776 155.019 92.104 153.657 134.309 C 155.607 132.946 159.12 131.769 160.16 106.352 C 160.454 103.631 205.255 173.411 195.638 218.356 C 199.4 212.568 203.153 208.811 202.235 184.258 C 202.431 180.697 228.719 234.694 219.362 289.226 C 225.573 283.363 225.353 282.048 228.177 265.06 C 228.775 262.426 242.441 320.942 227.687 337.947 C 231.066 338.221 236.474 329.871 240.57 320.933 C 243.268 316.381 244.48 362.692 217.351 383.98 C 188.147 301.825 127.586 114.837 34.277 4.636 Z " fill="rgb(0,0,0)" fill-opacity="0.2"/><path d=" M 84.518 72.874 C 180.456 213.438 252.787 471.685 248.585 496.805 C 244.678 494.06 180.206 280.261 81.825 74.085 C 81.236 72.852 79.768 69.971 80.879 69.667 C 81.779 68.789 83.628 71.725 84.518 72.874 Z " fill="rgb(255,255,255)"/><path d=" M 248.585 496.805 C 244.678 494.06 180.206 280.261 81.825 74.085 C 81.236 72.852 79.768 69.971 80.879 69.667 C 165.277 217.385 232.867 424.558 248.585 496.805 Z " fill="rgb(236,223,203)"/></g><defs><filter id="PjqCCt53bU6Ok2eJERLPepRd6LN5VUkb" x="-200%" y="-200%" width="400%" height="400%" filterUnits="objectBoundingBox" color-interpolation-filters="sRGB"><feGaussianBlur xmlns="http://www.w3.org/2000/svg" in="SourceGraphic" stdDeviation="3.0055263439873197"/><feOffset xmlns="http://www.w3.org/2000/svg" dx="2" dy="2" result="pf_100_offsetBlur"/><feFlood xmlns="http://www.w3.org/2000/svg" flood-color="#000000" flood-opacity="0.35"/><feComposite xmlns="http://www.w3.org/2000/svg" in2="pf_100_offsetBlur" operator="in" result="pf_100_dropShadow"/><feBlend xmlns="http://www.w3.org/2000/svg" in="SourceGraphic" in2="pf_100_dropShadow" mode="normal"/></filter></defs></g></svg>